<svg width="748" height="728" xmlns="http://www.w3.org/2000/svg" xmlns:xlink="http://www.w3.org/1999/xlink" overflow="hidden"><defs><clipPath id="clip0"><rect x="265" y="32" width="748" height="728"/></clipPath></defs><g clip-path="url(#clip0)" transform="translate(-265 -32)"><text fill="#3E8BC3" font-family="Arial,Arial_MSFontService,sans-serif" font-weight="900" font-size="117" transform="translate(452.517 658)">IBUKI</text><path d="M699.631 40 617.667 52.4027 527.876 227.419 460.187 232.932 396.182 344.556 362.568 332.153 276 534.731 1004 543 958.874 268.762 906.381 202.614 858.492 186.077 785.278 100.636 759.491 51.0247 699.631 40Z" stroke="#3E8BC3" stroke-width="14" stroke-miterlimit="8" fill="#FFFFFF" fill-rule="evenodd"/><path d="M673 111.623 673 111.623 686.081 111.623 713.332 65 777.645 156.638 798.355 151.815 827.787 193.615 856.673 206.477 863.213 216.123 876.839 206.477 895.37 228.985 903 272.392 881.744 259.531 871.934 274 862.668 267.569 856.673 251.492 829.422 245.062 814.706 222.554 798.355 208.085 783.64 212.908 756.934 206.477 732.408 217.731 690.441 179.146 673 111.623Z" fill="#3E8BC3" fill-rule="evenodd"/><path d="M895 310.507 905.568 347.675 916.135 346.299 923.027 380.714 950.135 390.351 963 411 945.081 311.883 918.892 309.13 914.297 305 906.027 318.766 895 310.507Z" fill="#3E8BC3" fill-rule="evenodd"/><path d="M614.159 171.724 585.706 205.428 554.09 220.407 540.18 257.107 513.623 294.555 526.269 344.737 480.111 373.947 464.935 406.152 430.158 442.103 401.072 451.84 384 517 979 517 970.78 449.593 911.976 483.296 926.519 442.103 902.491 360.465 868.346 312.531 799.425 278.078 768.442 246.621 734.93 251.115 706.476 285.568 675.493 315.527 659.053 273.584 662.847 206.926 679.287 182.21 659.685 168.728 647.672 204.679 640.716 189.7 653.362 153.749 641.981 153 621.115 198.687 614.159 171.724Z" fill="#3E8BC3" fill-rule="evenodd"/><path d="M370.5 360 382.167 402 383 443 359.667 515 308 515 370.5 360Z" fill="#3E8BC3" fill-rule="evenodd"/><path d="M466.119 268 444.305 329 409.907 354 399 398 451.017 365 487.932 322 477.864 296 498 255 481.22 255 473.669 274 466.119 268Z" fill="#3E8BC3" fill-rule="evenodd"/></g></svg>